<svg width="50" height="50" viewBox="0 0 50 50" fill="none" xmlns="http://www.w3.org/2000/svg">
<g clip-path="url(#clip0_2014_146)">
<path d="M27.6663 43.739L26.8196 45.7948C26.6514 46.2017 26.2667 46.4773 25.8339 46.496C25.5482 46.5068 25.2597 46.5148 24.9685 46.5148C15.0029 46.5095 6.18565 39.4615 4.00073 29.75L0.608459 30.5182C1.83448 35.9655 4.91156 40.9096 9.27341 44.443C13.686 48.0165 19.2445 49.9893 24.9312 50C24.9392 50 24.9819 50 24.9819 50C25.3158 50 25.647 49.992 25.9782 49.9786C27.7624 49.9036 29.3571 48.7821 30.0383 47.1198L31.1441 44.4323L27.6663 43.739Z" fill="url(#paint0_linear_2014_146)"/>
<path d="M0.886811 31.6236C0.299177 29.4769 0 27.2471 0 25.0012C0 14.749 6.41857 5.37488 15.973 1.67822L17.2257 4.93054C9.00148 8.11325 3.47773 16.1784 3.47773 25.0012C3.47773 26.9365 3.73414 28.8531 4.23898 30.7001L0.886811 31.6236Z" fill="url(#paint1_linear_2014_146)"/>
<path d="M44.0806 15.0972C40.3625 7.93672 33.0438 3.48787 24.9852 3.48787C22.1299 3.48787 19.3546 4.03929 16.7423 5.1234L15.4095 1.9032C18.4465 0.642429 21.6678 0 24.9852 0C34.3473 0 42.8466 5.16623 47.1657 13.4857L44.0806 15.0972Z" fill="url(#paint2_linear_2014_146)"/>
<path d="M17.5249 19.8431C19.5416 19.8431 21.1843 20.9219 22.0283 22.8036L22.0951 22.9509L25.482 21.7972L25.4099 21.6232C24.0984 18.4191 21.0775 16.4275 17.5249 16.4275C15.0275 16.4275 12.9974 17.2306 11.32 18.8795C9.65329 20.5177 8.80927 22.5788 8.80927 25.0067C8.80927 27.4131 9.65329 29.4635 11.32 31.1018C12.9974 32.7507 15.0275 33.5537 17.5249 33.5537C21.0775 33.5537 24.0984 31.5622 25.4099 28.3607L25.482 28.1868L22.0898 27.0303L22.0256 27.1829C21.2698 29.0326 19.587 30.1381 17.5249 30.1381C16.12 30.1381 14.934 29.6456 13.9938 28.6766C13.0429 27.6942 12.5621 26.4602 12.5621 25.0094C12.5621 23.5478 13.0322 22.3379 13.9938 21.31C14.9313 20.3357 16.12 19.8431 17.5249 19.8431Z" fill="#09293F"/>
<path d="M38.7384 16.7434L33.9119 28.9951L29.0531 16.7434H25.0786L31.8925 33.4654L27.0445 45.2593L30.5196 45.9527L42.494 16.7434H38.7384Z" fill="#09293F"/>
<path d="M47.1657 13.4858C48.9241 16.9113 50 20.9347 50 25.053C50 34.6624 44.5955 43.0055 36.6693 47.1903L34.9568 44.1536C41.8301 40.5693 46.5247 33.3611 46.5247 25.053C46.5247 21.4478 45.6431 18.0821 44.0807 15.0973L47.1657 13.4858Z" fill="url(#paint3_linear_2014_146)"/>
</g>
<defs>
<linearGradient id="paint0_linear_2014_146" x1="2.53828" y1="38.6658" x2="26.4089" y2="45.0393" gradientUnits="userSpaceOnUse">
<stop stop-color="#315C55"/>
<stop offset="1" stop-color="#09293F"/>
</linearGradient>
<linearGradient id="paint1_linear_2014_146" x1="9.35315" y1="9.84197" x2="7.13158" y2="31.4715" gradientUnits="userSpaceOnUse">
<stop stop-color="#4FB38D"/>
<stop offset="1" stop-color="#315C55"/>
</linearGradient>
<linearGradient id="paint2_linear_2014_146" x1="19.8265" y1="7.54859" x2="37.4443" y2="10.7781" gradientUnits="userSpaceOnUse">
<stop stop-color="#4FB38D"/>
<stop offset="1" stop-color="#97DEC0"/>
</linearGradient>
<linearGradient id="paint3_linear_2014_146" x1="43.059" y1="23.8979" x2="33.4524" y2="41.8848" gradientUnits="userSpaceOnUse">
<stop stop-color="#97DEC0"/>
<stop offset="1" stop-color="#FFFFF0" stop-opacity="0"/>
</linearGradient>
<clipPath id="clip0_2014_146">
<rect width="50" height="50" fill="white"/>
</clipPath>
</defs>
</svg>
