<svg width="50" height="50" viewBox="0 0 50 50" fill="none" xmlns="http://www.w3.org/2000/svg">
<path d="M6.83594 40.3583L7.13863 39.9344L21.4574 12.7653L21.4876 12.4777L15.1756 0.621511C14.6468 -0.371656 13.158 -0.120549 12.9845 0.991224L6.83594 40.3583Z" fill="#FFC24A"/>
<path d="M7.01447 40.0351L7.24344 39.5886L21.4122 12.7041L15.1159 0.799744C14.5927 -0.183017 13.2638 0.0675087 13.0921 1.16763L7.01447 40.0351Z" fill="#FFA712"/>
<path d="M26.0891 21.4458L30.7889 16.6325L26.0878 7.65806C25.6415 6.80857 24.3955 6.80611 23.9539 7.65806L21.4423 12.4482V12.8561L26.0891 21.4458Z" fill="#F4BD62"/>
<path d="M26.0053 21.2453L30.5743 16.5659L26.0053 7.86568C25.5714 7.03981 24.5174 6.95328 24.0881 7.78153L21.5632 12.6458L21.4877 12.8945L26.0053 21.2453Z" fill="#FFA50E"/>
<path d="M6.83594 40.3584L6.97314 40.2205L7.47165 40.0178L25.7938 21.7637L26.026 21.1318L21.4553 12.4221L6.83594 40.3584Z" fill="#F6820C"/>
<path d="M26.6759 49.5643L43.2579 40.3164L38.5227 11.1534C38.3745 10.241 37.2551 9.88026 36.6021 10.5345L6.83594 40.3583L23.3228 49.5634C24.3648 50.1452 25.6337 50.1455 26.6759 49.5643Z" fill="#FDE068"/>
<path d="M43.1093 40.2387L38.41 11.2971C38.263 10.3916 37.3322 10.0169 36.684 10.6662L7.01978 40.3016L23.3256 49.4156C24.3596 49.993 25.6189 49.9932 26.6532 49.4164L43.1093 40.2387Z" fill="#FCCA3F"/>
<path d="M26.6759 49.2917C25.6337 49.8729 24.3648 49.8727 23.3228 49.2909L6.96873 40.218L6.83594 40.3582L23.3228 49.5633C24.3648 50.1451 25.6337 50.1454 26.6759 49.5642L43.2579 40.3162L43.2173 40.0664L26.6759 49.2917Z" fill="#EEAB37"/>
</svg>
