<svg width="50" height="50" viewBox="0 0 50 50" fill="none" xmlns="http://www.w3.org/2000/svg">
<path fill-rule="evenodd" clip-rule="evenodd" d="M25.0443 49.3235C24.3726 49.3235 23.7458 49.1444 23.1637 48.8309L17.2087 45.2937C16.3132 44.8012 16.7609 44.6221 17.0296 44.5325C18.2385 44.1296 18.4623 44.04 19.716 43.3236C19.8504 43.2341 20.0295 43.2788 20.1638 43.3684L24.7308 46.0997C24.9099 46.1892 25.1338 46.1892 25.2681 46.0997L43.1333 35.7567C43.3124 35.6671 43.402 35.488 43.402 35.2641V14.6229C43.402 14.399 43.3124 14.2199 43.1333 14.1304L25.2681 3.83212C25.089 3.74257 24.8652 3.74257 24.7308 3.83212L6.86564 14.1304C6.68654 14.2199 6.59699 14.4438 6.59699 14.6229V35.2641C6.59699 35.4432 6.68654 35.6671 6.86564 35.7567L11.7461 38.5775C14.3878 39.9207 16.0445 38.3536 16.0445 36.7865V16.4139C16.0445 16.1452 16.2684 15.8766 16.5818 15.8766H18.8653C19.134 15.8766 19.4026 16.1005 19.4026 16.4139V36.7865C19.4026 40.3237 17.4773 42.3833 14.1192 42.3833C13.0894 42.3833 12.2834 42.3833 9.99989 41.264L5.29852 38.5775C4.13437 37.9058 3.41797 36.6522 3.41797 35.3089V14.6677C3.41797 13.3244 4.13437 12.0707 5.29852 11.3991L23.1637 1.05607C24.2831 0.429225 25.8054 0.429225 26.9248 1.05607L44.79 11.3991C45.9542 12.0707 46.6706 13.3244 46.6706 14.6677V35.3089C46.6706 36.6522 45.9542 37.9058 44.79 38.5775L26.9248 48.9205C26.3427 49.1891 25.6711 49.3235 25.0443 49.3235ZM30.5516 35.1298C22.716 35.1298 21.1041 31.5478 21.1041 28.5031C21.1041 28.2345 21.3279 27.9658 21.6414 27.9658H23.9697C24.2383 27.9658 24.4622 28.1449 24.4622 28.4136C24.8204 30.7866 25.8502 31.9508 30.5964 31.9508C34.3575 31.9508 35.9694 31.1001 35.9694 29.0852C35.9694 27.921 35.5216 27.0703 29.6561 26.4882C24.7756 25.9957 21.7309 24.9211 21.7309 21.0257C21.7309 17.3989 24.7756 15.2497 29.88 15.2497C35.6112 15.2497 38.432 17.2198 38.7902 21.5182C38.7902 21.6525 38.7454 21.7869 38.6558 21.9212C38.5663 22.0107 38.432 22.1003 38.2976 22.1003H35.9694C35.7455 22.1003 35.5216 21.9212 35.4768 21.6973C34.9395 19.2347 33.5515 18.4288 29.88 18.4288C25.7607 18.4288 25.2681 19.8616 25.2681 20.9361C25.2681 22.2346 25.8502 22.6376 31.4023 23.354C36.9096 24.0704 39.5066 25.1002 39.5066 28.9509C39.4618 32.8911 36.238 35.1298 30.5516 35.1298Z" fill="#539E43"/>
</svg>
